<svg xmlns="http://www.w3.org/2000/svg" viewBox="0 0 84.54 84.54"><defs><style>.cls-1{fill:#231f20;}.cls-2{fill:#31647b;}.cls-3{fill:#dd4c31;}.cls-4{fill:#f9a11b;}</style></defs><g id="Layer_2" data-name="Layer 2"><g id="Layer_1-2" data-name="Layer 1"><circle class="cls-1" cx="42.27" cy="42.27" r="42.27" transform="translate(-13.04 64.95) rotate(-67.29)"/><circle class="cls-2" cx="42.27" cy="42.27" r="39.87" transform="translate(-7.88 74.81) rotate(-77.97)"/><path class="cls-3" d="M52.51,40.39a12.37,12.37,0,0,0-8.26,3.11V41.21H43.12a14.85,14.85,0,0,0,1.15-5.77,14.43,14.43,0,0,0-.81-4.8V3.92H40.23l-.08,21.61a12.23,12.23,0,0,0-8.46-3.35c-7,0-12.58,5.66-12.58,13.26s5.63,13.78,12.58,13.78a11.89,11.89,0,0,0,7.88-3l-.12,31.41v2h4.8V63.64A12,12,0,0,0,52.51,67c7,0,12.58-6.07,12.58-13.54S59.46,40.39,52.51,40.39Zm-20.7,4.46c-4.61,0-8.35-4.23-8.35-9.45s3.74-9.11,8.35-9.11,8.35,3.89,8.35,9.11S36.42,44.85,31.81,44.85ZM52.62,62.67c-4.61,0-8.35-4.16-8.35-9.29s3.74-9,8.35-9,8.35,3.82,8.35,9S57.23,62.67,52.62,62.67Z"/><path class="cls-1" d="M44.52,79.82H39.17V77.59l.12-30.82a12.18,12.18,0,0,1-7.6,2.72c-7.09,0-12.85-6.3-12.85-14.05,0-7.59,5.64-13.54,12.85-13.54a12.55,12.55,0,0,1,8.19,3L40,3.65h3.79V30.59a15,15,0,0,1-.22,10.34h1v2a12.72,12.72,0,0,1,8-2.8c7.21,0,12.85,5.85,12.85,13.32S59.6,67.24,52.51,67.24a12.32,12.32,0,0,1-8-3Zm-4.8-.55H44V63l.46.44a11.78,11.78,0,0,0,8.07,3.25c6.78,0,12.3-5.95,12.3-13.26,0-7.16-5.4-12.77-12.3-12.77a12.15,12.15,0,0,0-8.08,3.05l-.45.4V41.48H42.7l.16-.38A14.35,14.35,0,0,0,44,35.44a14,14,0,0,0-.8-4.71V4.2H40.5l-.07,22L40,25.73a12,12,0,0,0-8.28-3.28c-6.9,0-12.3,5.71-12.3,13,0,7.45,5.52,13.5,12.3,13.5a11.49,11.49,0,0,0,7.69-3l.46-.41ZM52.62,63C47.87,63,44,58.66,44,53.38s3.79-9.22,8.62-9.22,8.63,4.05,8.63,9.22S57.38,63,52.62,63Zm0-18.24c-4.53,0-8.07,3.81-8.07,8.67s3.62,9,8.07,9,8.08-4,8.08-9S57.15,44.71,52.62,44.71Zm-20.81.41c-4.76,0-8.63-4.36-8.63-9.72S27,26,31.81,26s8.62,4.12,8.62,9.38S36.56,45.12,31.81,45.12Zm0-18.55c-4.53,0-8.08,3.88-8.08,8.83s3.62,9.18,8.08,9.18,8.07-4.12,8.07-9.18S36.33,26.57,31.81,26.57Z"/><polygon class="cls-4" points="32.45 32.74 52.01 32.74 37.11 55.8 50.77 55.8 50.77 59.92 30.09 59.92 44.91 36.59 32.38 36.59 32.45 32.74"/><path class="cls-1" d="M51,60.19H29.59L44.41,36.86H32.1l.08-4.39H52.51L37.62,55.53H51Zm-20.45-.54H50.5V56.08H36.61L51.5,33H32.72l-.06,3.29H45.41Z"/></g></g></svg>